<svg xmlns="http://www.w3.org/2000/svg" xmlns:xlink="http://www.w3.org/1999/xlink" width="1440" zoomAndPan="magnify" viewBox="0 0 1080 346.49999" height="462" preserveAspectRatio="xMidYMid meet" version="1.0"><defs><filter x="0%" y="0%" width="100%" height="100%" id="75833ef621"><feColorMatrix values="0 0 0 0 1 0 0 0 0 1 0 0 0 0 1 0 0 0 1 0" color-interpolation-filters="sRGB"/></filter><clipPath id="3e0d4040ec"><path d="M 0.777344 0 L 1079.222656 0 L 1079.222656 346 L 0.777344 346 Z M 0.777344 0 " clip-rule="nonzero"/></clipPath><mask id="dfa4e82d6f"><g filter="url(#75833ef621)"><rect x="-108" width="1296" fill="#000000" y="-34.649999" height="415.799987" fill-opacity="0.3"/></g></mask><clipPath id="b029b2e0ed"><path d="M 0.777344 0 L 37 0 L 37 44 L 0.777344 44 Z M 0.777344 0 " clip-rule="nonzero"/></clipPath><clipPath id="e61603f91b"><path d="M 1043 0 L 1079.222656 0 L 1079.222656 44 L 1043 44 Z M 1043 0 " clip-rule="nonzero"/></clipPath><clipPath id="2abab8ff15"><path d="M 0.777344 43 L 37 43 L 37 88 L 0.777344 88 Z M 0.777344 43 " clip-rule="nonzero"/></clipPath><clipPath id="f6fb63d736"><path d="M 1043 43 L 1079.222656 43 L 1079.222656 88 L 1043 88 Z M 1043 43 " clip-rule="nonzero"/></clipPath><clipPath id="173dd49435"><path d="M 0.777344 87 L 37 87 L 37 127 L 0.777344 127 Z M 0.777344 87 " clip-rule="nonzero"/></clipPath><clipPath id="b3b2525fee"><path d="M 1043 87 L 1079.222656 87 L 1079.222656 127 L 1043 127 Z M 1043 87 " clip-rule="nonzero"/></clipPath><clipPath id="5745127081"><path d="M 0.777344 126 L 37 126 L 37 171 L 0.777344 171 Z M 0.777344 126 " clip-rule="nonzero"/></clipPath><clipPath id="54ba421e43"><path d="M 1043 126 L 1079.222656 126 L 1079.222656 171 L 1043 171 Z M 1043 126 " clip-rule="nonzero"/></clipPath><clipPath id="a61f538cc7"><path d="M 0.777344 170 L 37 170 L 37 215 L 0.777344 215 Z M 0.777344 170 " clip-rule="nonzero"/></clipPath><clipPath id="2c9da3b5f0"><path d="M 1043 170 L 1079.222656 170 L 1079.222656 215 L 1043 215 Z M 1043 170 " clip-rule="nonzero"/></clipPath><clipPath id="0faf1899c4"><path d="M 0.777344 214 L 37 214 L 37 259 L 0.777344 259 Z M 0.777344 214 " clip-rule="nonzero"/></clipPath><clipPath id="b50ad9d53e"><path d="M 1043 214 L 1079.222656 214 L 1079.222656 259 L 1043 259 Z M 1043 214 " clip-rule="nonzero"/></clipPath><clipPath id="0d57fefce2"><path d="M 0.777344 258 L 37 258 L 37 303 L 0.777344 303 Z M 0.777344 258 " clip-rule="nonzero"/></clipPath><clipPath id="6d5c53c8a3"><path d="M 1043 258 L 1079.222656 258 L 1079.222656 303 L 1043 303 Z M 1043 258 " clip-rule="nonzero"/></clipPath><clipPath id="f218044088"><path d="M 0.777344 302 L 37 302 L 37 346 L 0.777344 346 Z M 0.777344 302 " clip-rule="nonzero"/></clipPath><clipPath id="a43fd1f863"><path d="M 1043 302 L 1079.222656 302 L 1079.222656 346 L 1043 346 Z M 1043 302 " clip-rule="nonzero"/></clipPath><clipPath id="bf95bde34a"><rect x="0" width="1080" y="0" height="346"/></clipPath></defs><g clip-path="url(#3e0d4040ec)"><g mask="url(#dfa4e82d6f)"><g transform="matrix(1, 0, 0, 1, 0.000000000000000111, 0)"><g clip-path="url(#bf95bde34a)"><g clip-path="url(#b029b2e0ed)"><path fill="#1a56db" d="M 0.777344 43.976562 L 36.726562 43.976562 L 36.726562 0 L 35.976562 0 L 35.976562 43.0625 L 0.777344 43.0625 Z M 0.777344 43.976562 " fill-opacity="0.1" fill-rule="evenodd"/></g><path fill="#1a56db" d="M 36.726562 43.976562 L 72.675781 43.976562 L 72.675781 0 L 71.925781 0 L 71.925781 43.0625 L 36.726562 43.0625 Z M 36.726562 43.976562 " fill-opacity="0.1" fill-rule="evenodd"/><path fill="#1a56db" d="M 72.675781 43.976562 L 108.621094 43.976562 L 108.621094 0 L 107.875 0 L 107.875 43.0625 L 72.675781 43.0625 Z M 72.675781 43.976562 " fill-opacity="0.1" fill-rule="evenodd"/><path fill="#1a56db" d="M 108.621094 43.976562 L 144.570312 43.976562 L 144.570312 0 L 143.820312 0 L 143.820312 43.0625 L 108.621094 43.0625 Z M 108.621094 43.976562 " fill-opacity="0.1" fill-rule="evenodd"/><path fill="#1a56db" d="M 144.570312 43.976562 L 180.519531 43.976562 L 180.519531 0 L 179.769531 0 L 179.769531 43.0625 L 144.570312 43.0625 Z M 144.570312 43.976562 " fill-opacity="0.1" fill-rule="evenodd"/><path fill="#1a56db" d="M 180.519531 43.976562 L 216.46875 43.976562 L 216.46875 0 L 215.71875 0 L 215.71875 43.0625 L 180.519531 43.0625 Z M 180.519531 43.976562 " fill-opacity="0.1" fill-rule="evenodd"/><path fill="#0e1221" d="M 216.46875 0 L 252.414062 0 L 252.414062 43.976562 L 216.46875 43.976562 Z M 216.46875 0 " fill-opacity="1" fill-rule="nonzero"/><path fill="#0e1221" d="M 216.46875 43.976562 L 252.414062 43.976562 L 252.414062 0 L 251.667969 0 L 251.667969 43.0625 L 216.46875 43.0625 Z M 216.46875 43.976562 " fill-opacity="1" fill-rule="evenodd"/><path fill="#1a56db" d="M 252.414062 43.976562 L 288.363281 43.976562 L 288.363281 0 L 287.613281 0 L 287.613281 43.0625 L 252.414062 43.0625 Z M 252.414062 43.976562 " fill-opacity="0.1" fill-rule="evenodd"/><path fill="#1a56db" d="M 288.363281 43.976562 L 324.3125 43.976562 L 324.3125 0 L 323.5625 0 L 323.5625 43.0625 L 288.363281 43.0625 Z M 288.363281 43.976562 " fill-opacity="0.1" fill-rule="evenodd"/><path fill="#1a56db" d="M 324.3125 43.976562 L 360.257812 43.976562 L 360.257812 0 L 359.511719 0 L 359.511719 43.0625 L 324.3125 43.0625 Z M 324.3125 43.976562 " fill-opacity="0.1" fill-rule="evenodd"/><path fill="#1a56db" d="M 360.257812 43.976562 L 396.207031 43.976562 L 396.207031 0 L 395.457031 0 L 395.457031 43.0625 L 360.257812 43.0625 Z M 360.257812 43.976562 " fill-opacity="0.1" fill-rule="evenodd"/><path fill="#1a56db" d="M 396.207031 43.976562 L 432.15625 43.976562 L 432.15625 0 L 431.40625 0 L 431.40625 43.0625 L 396.207031 43.0625 Z M 396.207031 43.976562 " fill-opacity="0.1" fill-rule="evenodd"/><path fill="#0e1221" d="M 432.15625 0 L 468.105469 0 L 468.105469 43.976562 L 432.15625 43.976562 Z M 432.15625 0 " fill-opacity="1" fill-rule="nonzero"/><path fill="#0e1221" d="M 432.15625 43.976562 L 468.105469 43.976562 L 468.105469 0 L 467.355469 0 L 467.355469 43.0625 L 432.15625 43.0625 Z M 432.15625 43.976562 " fill-opacity="1" fill-rule="evenodd"/><path fill="#1a56db" d="M 468.105469 43.976562 L 504.050781 43.976562 L 504.050781 0 L 503.304688 0 L 503.304688 43.0625 L 468.105469 43.0625 Z M 468.105469 43.976562 " fill-opacity="0.1" fill-rule="evenodd"/><path fill="#1a56db" d="M 504.050781 43.976562 L 540 43.976562 L 540 0 L 539.25 0 L 539.25 43.0625 L 504.050781 43.0625 Z M 504.050781 43.976562 " fill-opacity="0.1" fill-rule="evenodd"/><path fill="#1a56db" d="M 540 43.976562 L 575.949219 43.976562 L 575.949219 0 L 575.199219 0 L 575.199219 43.0625 L 540 43.0625 Z M 540 43.976562 " fill-opacity="0.1" fill-rule="evenodd"/><path fill="#1a56db" d="M 575.949219 43.976562 L 611.894531 43.976562 L 611.894531 0 L 611.148438 0 L 611.148438 43.0625 L 575.949219 43.0625 Z M 575.949219 43.976562 " fill-opacity="0.1" fill-rule="evenodd"/><path fill="#1a56db" d="M 611.894531 43.976562 L 647.84375 43.976562 L 647.84375 0 L 647.09375 0 L 647.09375 43.0625 L 611.894531 43.0625 Z M 611.894531 43.976562 " fill-opacity="0.1" fill-rule="evenodd"/><path fill="#1a56db" d="M 647.84375 43.976562 L 683.792969 43.976562 L 683.792969 0 L 683.042969 0 L 683.042969 43.0625 L 647.84375 43.0625 Z M 647.84375 43.976562 " fill-opacity="0.1" fill-rule="evenodd"/><path fill="#1a56db" d="M 683.792969 43.976562 L 719.742188 43.976562 L 719.742188 0 L 718.992188 0 L 718.992188 43.0625 L 683.792969 43.0625 Z M 683.792969 43.976562 " fill-opacity="0.1" fill-rule="evenodd"/><path fill="#1a56db" d="M 719.742188 43.976562 L 755.6875 43.976562 L 755.6875 0 L 754.941406 0 L 754.941406 43.0625 L 719.742188 43.0625 Z M 719.742188 43.976562 " fill-opacity="0.1" fill-rule="evenodd"/><path fill="#1a56db" d="M 755.6875 43.976562 L 791.636719 43.976562 L 791.636719 0 L 790.886719 0 L 790.886719 43.0625 L 755.6875 43.0625 Z M 755.6875 43.976562 " fill-opacity="0.1" fill-rule="evenodd"/><path fill="#0e1221" d="M 791.636719 0 L 827.585938 0 L 827.585938 43.976562 L 791.636719 43.976562 Z M 791.636719 0 " fill-opacity="1" fill-rule="nonzero"/><path fill="#0e1221" d="M 791.636719 43.976562 L 827.585938 43.976562 L 827.585938 0 L 826.835938 0 L 826.835938 43.0625 L 791.636719 43.0625 Z M 791.636719 43.976562 " fill-opacity="1" fill-rule="evenodd"/><path fill="#1a56db" d="M 827.585938 43.976562 L 863.53125 43.976562 L 863.53125 0 L 862.785156 0 L 862.785156 43.0625 L 827.585938 43.0625 Z M 827.585938 43.976562 " fill-opacity="0.1" fill-rule="evenodd"/><path fill="#1a56db" d="M 863.53125 43.976562 L 899.480469 43.976562 L 899.480469 0 L 898.730469 0 L 898.730469 43.0625 L 863.53125 43.0625 Z M 863.53125 43.976562 " fill-opacity="0.1" fill-rule="evenodd"/><path fill="#1a56db" d="M 899.480469 43.976562 L 935.429688 43.976562 L 935.429688 0 L 934.679688 0 L 934.679688 43.0625 L 899.480469 43.0625 Z M 899.480469 43.976562 " fill-opacity="0.1" fill-rule="evenodd"/><path fill="#1a56db" d="M 935.429688 43.976562 L 971.378906 43.976562 L 971.378906 0 L 970.628906 0 L 970.628906 43.0625 L 935.429688 43.0625 Z M 935.429688 43.976562 " fill-opacity="0.1" fill-rule="evenodd"/><path fill="#1a56db" d="M 971.378906 43.976562 L 1007.324219 43.976562 L 1007.324219 0 L 1006.578125 0 L 1006.578125 43.0625 L 971.378906 43.0625 Z M 971.378906 43.976562 " fill-opacity="0.1" fill-rule="evenodd"/><path fill="#1a56db" d="M 1007.324219 43.976562 L 1043.273438 43.976562 L 1043.273438 0 L 1042.523438 0 L 1042.523438 43.0625 L 1007.324219 43.0625 Z M 1007.324219 43.976562 " fill-opacity="0.1" fill-rule="evenodd"/><g clip-path="url(#e61603f91b)"><path fill="#1a56db" d="M 1043.273438 43.976562 L 1079.222656 43.976562 L 1079.222656 0 L 1078.472656 0 L 1078.472656 43.0625 L 1043.273438 43.0625 Z M 1043.273438 43.976562 " fill-opacity="0.1" fill-rule="evenodd"/></g><g clip-path="url(#2abab8ff15)"><path fill="#1a56db" d="M 0.777344 87.953125 L 36.726562 87.953125 L 36.726562 43.976562 L 35.976562 43.976562 L 35.976562 87.039062 L 0.777344 87.039062 Z M 0.777344 87.953125 " fill-opacity="0.1" fill-rule="evenodd"/></g><path fill="#1a56db" d="M 36.726562 87.953125 L 72.675781 87.953125 L 72.675781 43.976562 L 71.925781 43.976562 L 71.925781 87.039062 L 36.726562 87.039062 Z M 36.726562 87.953125 " fill-opacity="0.1" fill-rule="evenodd"/><path fill="#1a56db" d="M 72.675781 87.953125 L 108.621094 87.953125 L 108.621094 43.976562 L 107.875 43.976562 L 107.875 87.039062 L 72.675781 87.039062 Z M 72.675781 87.953125 " fill-opacity="0.1" fill-rule="evenodd"/><path fill="#1a56db" d="M 108.621094 87.953125 L 144.570312 87.953125 L 144.570312 43.976562 L 143.820312 43.976562 L 143.820312 87.039062 L 108.621094 87.039062 Z M 108.621094 87.953125 " fill-opacity="0.1" fill-rule="evenodd"/><path fill="#0e1221" d="M 144.570312 43.976562 L 180.519531 43.976562 L 180.519531 87.953125 L 144.570312 87.953125 Z M 144.570312 43.976562 " fill-opacity="1" fill-rule="nonzero"/><path fill="#0e1221" d="M 144.570312 87.953125 L 180.519531 87.953125 L 180.519531 43.976562 L 179.769531 43.976562 L 179.769531 87.039062 L 144.570312 87.039062 Z M 144.570312 87.953125 " fill-opacity="1" fill-rule="evenodd"/><path fill="#1a56db" d="M 180.519531 87.953125 L 216.46875 87.953125 L 216.46875 43.976562 L 215.71875 43.976562 L 215.71875 87.039062 L 180.519531 87.039062 Z M 180.519531 87.953125 " fill-opacity="0.1" fill-rule="evenodd"/><path fill="#1a56db" d="M 216.46875 87.953125 L 252.414062 87.953125 L 252.414062 43.976562 L 251.667969 43.976562 L 251.667969 87.039062 L 216.46875 87.039062 Z M 216.46875 87.953125 " fill-opacity="0.1" fill-rule="evenodd"/><path fill="#1a56db" d="M 252.414062 87.953125 L 288.363281 87.953125 L 288.363281 43.976562 L 287.613281 43.976562 L 287.613281 87.039062 L 252.414062 87.039062 Z M 252.414062 87.953125 " fill-opacity="0.1" fill-rule="evenodd"/><path fill="#0e1221" d="M 288.363281 43.976562 L 324.3125 43.976562 L 324.3125 87.953125 L 288.363281 87.953125 Z M 288.363281 43.976562 " fill-opacity="1" fill-rule="nonzero"/><path fill="#0e1221" d="M 288.363281 87.953125 L 324.3125 87.953125 L 324.3125 43.976562 L 323.5625 43.976562 L 323.5625 87.039062 L 288.363281 87.039062 Z M 288.363281 87.953125 " fill-opacity="1" fill-rule="evenodd"/><path fill="#1a56db" d="M 324.3125 87.953125 L 360.257812 87.953125 L 360.257812 43.976562 L 359.511719 43.976562 L 359.511719 87.039062 L 324.3125 87.039062 Z M 324.3125 87.953125 " fill-opacity="0.1" fill-rule="evenodd"/><path fill="#1a56db" d="M 360.257812 87.953125 L 396.207031 87.953125 L 396.207031 43.976562 L 395.457031 43.976562 L 395.457031 87.039062 L 360.257812 87.039062 Z M 360.257812 87.953125 " fill-opacity="0.1" fill-rule="evenodd"/><path fill="#1a56db" d="M 396.207031 87.953125 L 432.15625 87.953125 L 432.15625 43.976562 L 431.40625 43.976562 L 431.40625 87.039062 L 396.207031 87.039062 Z M 396.207031 87.953125 " fill-opacity="0.1" fill-rule="evenodd"/><path fill="#1a56db" d="M 432.15625 87.953125 L 468.105469 87.953125 L 468.105469 43.976562 L 467.355469 43.976562 L 467.355469 87.039062 L 432.15625 87.039062 Z M 432.15625 87.953125 " fill-opacity="0.1" fill-rule="evenodd"/><path fill="#1a56db" d="M 468.105469 87.953125 L 504.050781 87.953125 L 504.050781 43.976562 L 503.304688 43.976562 L 503.304688 87.039062 L 468.105469 87.039062 Z M 468.105469 87.953125 " fill-opacity="0.1" fill-rule="evenodd"/><path fill="#1a56db" d="M 504.050781 87.953125 L 540 87.953125 L 540 43.976562 L 539.25 43.976562 L 539.25 87.039062 L 504.050781 87.039062 Z M 504.050781 87.953125 " fill-opacity="0.1" fill-rule="evenodd"/><path fill="#1a56db" d="M 540 87.953125 L 575.949219 87.953125 L 575.949219 43.976562 L 575.199219 43.976562 L 575.199219 87.039062 L 540 87.039062 Z M 540 87.953125 " fill-opacity="0.1" fill-rule="evenodd"/><path fill="#1a56db" d="M 575.949219 87.953125 L 611.894531 87.953125 L 611.894531 43.976562 L 611.148438 43.976562 L 611.148438 87.039062 L 575.949219 87.039062 Z M 575.949219 87.953125 " fill-opacity="0.1" fill-rule="evenodd"/><path fill="#0e1221" d="M 611.894531 43.976562 L 647.84375 43.976562 L 647.84375 87.953125 L 611.894531 87.953125 Z M 611.894531 43.976562 " fill-opacity="1" fill-rule="nonzero"/><path fill="#0e1221" d="M 611.894531 87.953125 L 647.84375 87.953125 L 647.84375 43.976562 L 647.09375 43.976562 L 647.09375 87.039062 L 611.894531 87.039062 Z M 611.894531 87.953125 " fill-opacity="1" fill-rule="evenodd"/><path fill="#1a56db" d="M 647.84375 87.953125 L 683.792969 87.953125 L 683.792969 43.976562 L 683.042969 43.976562 L 683.042969 87.039062 L 647.84375 87.039062 Z M 647.84375 87.953125 " fill-opacity="0.1" fill-rule="evenodd"/><path fill="#1a56db" d="M 683.792969 87.953125 L 719.742188 87.953125 L 719.742188 43.976562 L 718.992188 43.976562 L 718.992188 87.039062 L 683.792969 87.039062 Z M 683.792969 87.953125 " fill-opacity="0.1" fill-rule="evenodd"/><path fill="#1a56db" d="M 719.742188 87.953125 L 755.6875 87.953125 L 755.6875 43.976562 L 754.941406 43.976562 L 754.941406 87.039062 L 719.742188 87.039062 Z M 719.742188 87.953125 " fill-opacity="0.1" fill-rule="evenodd"/><path fill="#1a56db" d="M 755.6875 87.953125 L 791.636719 87.953125 L 791.636719 43.976562 L 790.886719 43.976562 L 790.886719 87.039062 L 755.6875 87.039062 Z M 755.6875 87.953125 " fill-opacity="0.1" fill-rule="evenodd"/><path fill="#1a56db" d="M 791.636719 87.953125 L 827.585938 87.953125 L 827.585938 43.976562 L 826.835938 43.976562 L 826.835938 87.039062 L 791.636719 87.039062 Z M 791.636719 87.953125 " fill-opacity="0.1" fill-rule="evenodd"/><path fill="#1a56db" d="M 827.585938 87.953125 L 863.53125 87.953125 L 863.53125 43.976562 L 862.785156 43.976562 L 862.785156 87.039062 L 827.585938 87.039062 Z M 827.585938 87.953125 " fill-opacity="0.1" fill-rule="evenodd"/><path fill="#1a56db" d="M 863.53125 87.953125 L 899.480469 87.953125 L 899.480469 43.976562 L 898.730469 43.976562 L 898.730469 87.039062 L 863.53125 87.039062 Z M 863.53125 87.953125 " fill-opacity="0.1" fill-rule="evenodd"/><path fill="#1a56db" d="M 899.480469 87.953125 L 935.429688 87.953125 L 935.429688 43.976562 L 934.679688 43.976562 L 934.679688 87.039062 L 899.480469 87.039062 Z M 899.480469 87.953125 " fill-opacity="0.1" fill-rule="evenodd"/><path fill="#1a56db" d="M 935.429688 87.953125 L 971.378906 87.953125 L 971.378906 43.976562 L 970.628906 43.976562 L 970.628906 87.039062 L 935.429688 87.039062 Z M 935.429688 87.953125 " fill-opacity="0.1" fill-rule="evenodd"/><path fill="#1a56db" d="M 971.378906 87.953125 L 1007.324219 87.953125 L 1007.324219 43.976562 L 1006.578125 43.976562 L 1006.578125 87.039062 L 971.378906 87.039062 Z M 971.378906 87.953125 " fill-opacity="0.1" fill-rule="evenodd"/><path fill="#0e1221" d="M 1007.324219 43.976562 L 1043.273438 43.976562 L 1043.273438 87.953125 L 1007.324219 87.953125 Z M 1007.324219 43.976562 " fill-opacity="1" fill-rule="nonzero"/><path fill="#0e1221" d="M 1007.324219 87.953125 L 1043.273438 87.953125 L 1043.273438 43.976562 L 1042.523438 43.976562 L 1042.523438 87.039062 L 1007.324219 87.039062 Z M 1007.324219 87.953125 " fill-opacity="1" fill-rule="evenodd"/><g clip-path="url(#f6fb63d736)"><path fill="#1a56db" d="M 1043.273438 87.953125 L 1079.222656 87.953125 L 1079.222656 43.976562 L 1078.472656 43.976562 L 1078.472656 87.039062 L 1043.273438 87.039062 Z M 1043.273438 87.953125 " fill-opacity="0.1" fill-rule="evenodd"/></g><g clip-path="url(#173dd49435)"><path fill="#1a56db" d="M 0.777344 126.117188 L 36.726562 126.117188 L 36.726562 87.953125 L 35.976562 87.953125 L 35.976562 125.320312 L 0.777344 125.320312 Z M 0.777344 126.117188 " fill-opacity="0.1" fill-rule="evenodd"/></g><path fill="#0e1221" d="M 36.726562 87.953125 L 72.675781 87.953125 L 72.675781 126.117188 L 36.726562 126.117188 Z M 36.726562 87.953125 " fill-opacity="1" fill-rule="nonzero"/><path fill="#0e1221" d="M 36.726562 126.117188 L 72.675781 126.117188 L 72.675781 87.953125 L 71.925781 87.953125 L 71.925781 125.320312 L 36.726562 125.320312 Z M 36.726562 126.117188 " fill-opacity="1" fill-rule="evenodd"/><path fill="#1a56db" d="M 72.675781 126.117188 L 108.621094 126.117188 L 108.621094 87.953125 L 107.875 87.953125 L 107.875 125.320312 L 72.675781 125.320312 Z M 72.675781 126.117188 " fill-opacity="0.1" fill-rule="evenodd"/><path fill="#1a56db" d="M 108.621094 126.117188 L 144.570312 126.117188 L 144.570312 87.953125 L 143.820312 87.953125 L 143.820312 125.320312 L 108.621094 125.320312 Z M 108.621094 126.117188 " fill-opacity="0.1" fill-rule="evenodd"/><path fill="#1a56db" d="M 144.570312 126.117188 L 180.519531 126.117188 L 180.519531 87.953125 L 179.769531 87.953125 L 179.769531 125.320312 L 144.570312 125.320312 Z M 144.570312 126.117188 " fill-opacity="0.1" fill-rule="evenodd"/><path fill="#1a56db" d="M 180.519531 126.117188 L 216.46875 126.117188 L 216.46875 87.953125 L 215.71875 87.953125 L 215.71875 125.320312 L 180.519531 125.320312 Z M 180.519531 126.117188 " fill-opacity="0.1" fill-rule="evenodd"/><path fill="#1a56db" d="M 216.46875 126.117188 L 252.414062 126.117188 L 252.414062 87.953125 L 251.667969 87.953125 L 251.667969 125.320312 L 216.46875 125.320312 Z M 216.46875 126.117188 " fill-opacity="0.1" fill-rule="evenodd"/><path fill="#1a56db" d="M 252.414062 126.117188 L 288.363281 126.117188 L 288.363281 87.953125 L 287.613281 87.953125 L 287.613281 125.320312 L 252.414062 125.320312 Z M 252.414062 126.117188 " fill-opacity="0.1" fill-rule="evenodd"/><path fill="#1a56db" d="M 288.363281 126.117188 L 324.3125 126.117188 L 324.3125 87.953125 L 323.5625 87.953125 L 323.5625 125.320312 L 288.363281 125.320312 Z M 288.363281 126.117188 " fill-opacity="0.1" fill-rule="evenodd"/><path fill="#1a56db" d="M 324.3125 126.117188 L 360.257812 126.117188 L 360.257812 87.953125 L 359.511719 87.953125 L 359.511719 125.320312 L 324.3125 125.320312 Z M 324.3125 126.117188 " fill-opacity="0.1" fill-rule="evenodd"/><path fill="#1a56db" d="M 360.257812 126.117188 L 396.207031 126.117188 L 396.207031 87.953125 L 395.457031 87.953125 L 395.457031 125.320312 L 360.257812 125.320312 Z M 360.257812 126.117188 " fill-opacity="0.1" fill-rule="evenodd"/><path fill="#1a56db" d="M 396.207031 126.117188 L 432.15625 126.117188 L 432.15625 87.953125 L 431.40625 87.953125 L 431.40625 125.320312 L 396.207031 125.320312 Z M 396.207031 126.117188 " fill-opacity="0.1" fill-rule="evenodd"/><path fill="#1a56db" d="M 432.15625 126.117188 L 468.105469 126.117188 L 468.105469 87.953125 L 467.355469 87.953125 L 467.355469 125.320312 L 432.15625 125.320312 Z M 432.15625 126.117188 " fill-opacity="0.1" fill-rule="evenodd"/><path fill="#0e1221" d="M 468.105469 87.953125 L 504.050781 87.953125 L 504.050781 126.117188 L 468.105469 126.117188 Z M 468.105469 87.953125 " fill-opacity="1" fill-rule="nonzero"/><path fill="#0e1221" d="M 468.105469 126.117188 L 504.050781 126.117188 L 504.050781 87.953125 L 503.304688 87.953125 L 503.304688 125.320312 L 468.105469 125.320312 Z M 468.105469 126.117188 " fill-opacity="1" fill-rule="evenodd"/><path fill="#1a56db" d="M 504.050781 126.117188 L 540 126.117188 L 540 87.953125 L 539.25 87.953125 L 539.25 125.320312 L 504.050781 125.320312 Z M 504.050781 126.117188 " fill-opacity="0.1" fill-rule="evenodd"/><path fill="#1a56db" d="M 540 126.117188 L 575.949219 126.117188 L 575.949219 87.953125 L 575.199219 87.953125 L 575.199219 125.320312 L 540 125.320312 Z M 540 126.117188 " fill-opacity="0.1" fill-rule="evenodd"/><path fill="#1a56db" d="M 575.949219 126.117188 L 611.894531 126.117188 L 611.894531 87.953125 L 611.148438 87.953125 L 611.148438 125.320312 L 575.949219 125.320312 Z M 575.949219 126.117188 " fill-opacity="0.1" fill-rule="evenodd"/><path fill="#1a56db" d="M 611.894531 126.117188 L 647.84375 126.117188 L 647.84375 87.953125 L 647.09375 87.953125 L 647.09375 125.320312 L 611.894531 125.320312 Z M 611.894531 126.117188 " fill-opacity="0.1" fill-rule="evenodd"/><path fill="#1a56db" d="M 647.84375 126.117188 L 683.792969 126.117188 L 683.792969 87.953125 L 683.042969 87.953125 L 683.042969 125.320312 L 647.84375 125.320312 Z M 647.84375 126.117188 " fill-opacity="0.1" fill-rule="evenodd"/><path fill="#1a56db" d="M 683.792969 126.117188 L 719.742188 126.117188 L 719.742188 87.953125 L 718.992188 87.953125 L 718.992188 125.320312 L 683.792969 125.320312 Z M 683.792969 126.117188 " fill-opacity="0.1" fill-rule="evenodd"/><path fill="#1a56db" d="M 719.742188 126.117188 L 755.6875 126.117188 L 755.6875 87.953125 L 754.941406 87.953125 L 754.941406 125.320312 L 719.742188 125.320312 Z M 719.742188 126.117188 " fill-opacity="0.1" fill-rule="evenodd"/><path fill="#1a56db" d="M 755.6875 126.117188 L 791.636719 126.117188 L 791.636719 87.953125 L 790.886719 87.953125 L 790.886719 125.320312 L 755.6875 125.320312 Z M 755.6875 126.117188 " fill-opacity="0.1" fill-rule="evenodd"/><path fill="#0e1221" d="M 791.636719 87.953125 L 827.585938 87.953125 L 827.585938 126.117188 L 791.636719 126.117188 Z M 791.636719 87.953125 " fill-opacity="1" fill-rule="nonzero"/><path fill="#0e1221" d="M 791.636719 126.117188 L 827.585938 126.117188 L 827.585938 87.953125 L 826.835938 87.953125 L 826.835938 125.320312 L 791.636719 125.320312 Z M 791.636719 126.117188 " fill-opacity="1" fill-rule="evenodd"/><path fill="#1a56db" d="M 827.585938 126.117188 L 863.53125 126.117188 L 863.53125 87.953125 L 862.785156 87.953125 L 862.785156 125.320312 L 827.585938 125.320312 Z M 827.585938 126.117188 " fill-opacity="0.1" fill-rule="evenodd"/><path fill="#1a56db" d="M 863.53125 126.117188 L 899.480469 126.117188 L 899.480469 87.953125 L 898.730469 87.953125 L 898.730469 125.320312 L 863.53125 125.320312 Z M 863.53125 126.117188 " fill-opacity="0.1" fill-rule="evenodd"/><path fill="#1a56db" d="M 899.480469 126.117188 L 935.429688 126.117188 L 935.429688 87.953125 L 934.679688 87.953125 L 934.679688 125.320312 L 899.480469 125.320312 Z M 899.480469 126.117188 " fill-opacity="0.1" fill-rule="evenodd"/><path fill="#1a56db" d="M 935.429688 126.117188 L 971.378906 126.117188 L 971.378906 87.953125 L 970.628906 87.953125 L 970.628906 125.320312 L 935.429688 125.320312 Z M 935.429688 126.117188 " fill-opacity="0.1" fill-rule="evenodd"/><path fill="#1a56db" d="M 971.378906 126.117188 L 1007.324219 126.117188 L 1007.324219 87.953125 L 1006.578125 87.953125 L 1006.578125 125.320312 L 971.378906 125.320312 Z M 971.378906 126.117188 " fill-opacity="0.1" fill-rule="evenodd"/><path fill="#1a56db" d="M 1007.324219 126.117188 L 1043.273438 126.117188 L 1043.273438 87.953125 L 1042.523438 87.953125 L 1042.523438 125.320312 L 1007.324219 125.320312 Z M 1007.324219 126.117188 " fill-opacity="0.1" fill-rule="evenodd"/><g clip-path="url(#b3b2525fee)"><path fill="#1a56db" d="M 1043.273438 126.117188 L 1079.222656 126.117188 L 1079.222656 87.953125 L 1078.472656 87.953125 L 1078.472656 125.320312 L 1043.273438 125.320312 Z M 1043.273438 126.117188 " fill-opacity="0.1" fill-rule="evenodd"/></g><g clip-path="url(#5745127081)"><path fill="#1a56db" d="M 0.777344 170.09375 L 36.726562 170.09375 L 36.726562 126.117188 L 35.976562 126.117188 L 35.976562 169.175781 L 0.777344 169.175781 Z M 0.777344 170.09375 " fill-opacity="0.1" fill-rule="evenodd"/></g><path fill="#1a56db" d="M 36.726562 170.09375 L 72.675781 170.09375 L 72.675781 126.117188 L 71.925781 126.117188 L 71.925781 169.175781 L 36.726562 169.175781 Z M 36.726562 170.09375 " fill-opacity="0.1" fill-rule="evenodd"/><path fill="#1a56db" d="M 72.675781 170.09375 L 108.621094 170.09375 L 108.621094 126.117188 L 107.875 126.117188 L 107.875 169.175781 L 72.675781 169.175781 Z M 72.675781 170.09375 " fill-opacity="0.1" fill-rule="evenodd"/><path fill="#0e1221" d="M 108.621094 126.117188 L 144.570312 126.117188 L 144.570312 170.09375 L 108.621094 170.09375 Z M 108.621094 126.117188 " fill-opacity="1" fill-rule="nonzero"/><path fill="#0e1221" d="M 108.621094 170.09375 L 144.570312 170.09375 L 144.570312 126.117188 L 143.820312 126.117188 L 143.820312 169.175781 L 108.621094 169.175781 Z M 108.621094 170.09375 " fill-opacity="1" fill-rule="evenodd"/><path fill="#1a56db" d="M 144.570312 170.09375 L 180.519531 170.09375 L 180.519531 126.117188 L 179.769531 126.117188 L 179.769531 169.175781 L 144.570312 169.175781 Z M 144.570312 170.09375 " fill-opacity="0.1" fill-rule="evenodd"/><path fill="#1a56db" d="M 180.519531 170.09375 L 216.46875 170.09375 L 216.46875 126.117188 L 215.71875 126.117188 L 215.71875 169.175781 L 180.519531 169.175781 Z M 180.519531 170.09375 " fill-opacity="0.1" fill-rule="evenodd"/><path fill="#1a56db" d="M 216.46875 170.09375 L 252.414062 170.09375 L 252.414062 126.117188 L 251.667969 126.117188 L 251.667969 169.175781 L 216.46875 169.175781 Z M 216.46875 170.09375 " fill-opacity="0.1" fill-rule="evenodd"/><path fill="#1a56db" d="M 252.414062 170.09375 L 288.363281 170.09375 L 288.363281 126.117188 L 287.613281 126.117188 L 287.613281 169.175781 L 252.414062 169.175781 Z M 252.414062 170.09375 " fill-opacity="0.1" fill-rule="evenodd"/><path fill="#1a56db" d="M 288.363281 170.09375 L 324.3125 170.09375 L 324.3125 126.117188 L 323.5625 126.117188 L 323.5625 169.175781 L 288.363281 169.175781 Z M 288.363281 170.09375 " fill-opacity="0.1" fill-rule="evenodd"/><path fill="#1a56db" d="M 324.3125 170.09375 L 360.257812 170.09375 L 360.257812 126.117188 L 359.511719 126.117188 L 359.511719 169.175781 L 324.3125 169.175781 Z M 324.3125 170.09375 " fill-opacity="0.1" fill-rule="evenodd"/><path fill="#1a56db" d="M 360.257812 170.09375 L 396.207031 170.09375 L 396.207031 126.117188 L 395.457031 126.117188 L 395.457031 169.175781 L 360.257812 169.175781 Z M 360.257812 170.09375 " fill-opacity="0.1" fill-rule="evenodd"/><path fill="#0e1221" d="M 396.207031 126.117188 L 432.15625 126.117188 L 432.15625 170.09375 L 396.207031 170.09375 Z M 396.207031 126.117188 " fill-opacity="1" fill-rule="nonzero"/><path fill="#0e1221" d="M 396.207031 170.09375 L 432.15625 170.09375 L 432.15625 126.117188 L 431.40625 126.117188 L 431.40625 169.175781 L 396.207031 169.175781 Z M 396.207031 170.09375 " fill-opacity="1" fill-rule="evenodd"/><path fill="#1a56db" d="M 432.15625 170.09375 L 468.105469 170.09375 L 468.105469 126.117188 L 467.355469 126.117188 L 467.355469 169.175781 L 432.15625 169.175781 Z M 432.15625 170.09375 " fill-opacity="0.1" fill-rule="evenodd"/><path fill="#1a56db" d="M 468.105469 170.09375 L 504.050781 170.09375 L 504.050781 126.117188 L 503.304688 126.117188 L 503.304688 169.175781 L 468.105469 169.175781 Z M 468.105469 170.09375 " fill-opacity="0.1" fill-rule="evenodd"/><path fill="#1a56db" d="M 504.050781 170.09375 L 540 170.09375 L 540 126.117188 L 539.25 126.117188 L 539.25 169.175781 L 504.050781 169.175781 Z M 504.050781 170.09375 " fill-opacity="0.1" fill-rule="evenodd"/><path fill="#1a56db" d="M 540 170.09375 L 575.949219 170.09375 L 575.949219 126.117188 L 575.199219 126.117188 L 575.199219 169.175781 L 540 169.175781 Z M 540 170.09375 " fill-opacity="0.1" fill-rule="evenodd"/><path fill="#1a56db" d="M 575.949219 170.09375 L 611.894531 170.09375 L 611.894531 126.117188 L 611.148438 126.117188 L 611.148438 169.175781 L 575.949219 169.175781 Z M 575.949219 170.09375 " fill-opacity="0.1" fill-rule="evenodd"/><path fill="#1a56db" d="M 611.894531 170.09375 L 647.84375 170.09375 L 647.84375 126.117188 L 647.09375 126.117188 L 647.09375 169.175781 L 611.894531 169.175781 Z M 611.894531 170.09375 " fill-opacity="0.1" fill-rule="evenodd"/><path fill="#1a56db" d="M 647.84375 170.09375 L 683.792969 170.09375 L 683.792969 126.117188 L 683.042969 126.117188 L 683.042969 169.175781 L 647.84375 169.175781 Z M 647.84375 170.09375 " fill-opacity="0.1" fill-rule="evenodd"/><path fill="#1a56db" d="M 683.792969 170.09375 L 719.742188 170.09375 L 719.742188 126.117188 L 718.992188 126.117188 L 718.992188 169.175781 L 683.792969 169.175781 Z M 683.792969 170.09375 " fill-opacity="0.1" fill-rule="evenodd"/><path fill="#1a56db" d="M 719.742188 170.09375 L 755.6875 170.09375 L 755.6875 126.117188 L 754.941406 126.117188 L 754.941406 169.175781 L 719.742188 169.175781 Z M 719.742188 170.09375 " fill-opacity="0.1" fill-rule="evenodd"/><path fill="#0e1221" d="M 755.6875 126.117188 L 791.636719 126.117188 L 791.636719 170.09375 L 755.6875 170.09375 Z M 755.6875 126.117188 " fill-opacity="1" fill-rule="nonzero"/><path fill="#0e1221" d="M 755.6875 170.09375 L 791.636719 170.09375 L 791.636719 126.117188 L 790.886719 126.117188 L 790.886719 169.175781 L 755.6875 169.175781 Z M 755.6875 170.09375 " fill-opacity="1" fill-rule="evenodd"/><path fill="#1a56db" d="M 791.636719 170.09375 L 827.585938 170.09375 L 827.585938 126.117188 L 826.835938 126.117188 L 826.835938 169.175781 L 791.636719 169.175781 Z M 791.636719 170.09375 " fill-opacity="0.1" fill-rule="evenodd"/><path fill="#1a56db" d="M 827.585938 170.09375 L 863.53125 170.09375 L 863.53125 126.117188 L 862.785156 126.117188 L 862.785156 169.175781 L 827.585938 169.175781 Z M 827.585938 170.09375 " fill-opacity="0.1" fill-rule="evenodd"/><path fill="#1a56db" d="M 863.53125 170.09375 L 899.480469 170.09375 L 899.480469 126.117188 L 898.730469 126.117188 L 898.730469 169.175781 L 863.53125 169.175781 Z M 863.53125 170.09375 " fill-opacity="0.1" fill-rule="evenodd"/><path fill="#1a56db" d="M 899.480469 170.09375 L 935.429688 170.09375 L 935.429688 126.117188 L 934.679688 126.117188 L 934.679688 169.175781 L 899.480469 169.175781 Z M 899.480469 170.09375 " fill-opacity="0.1" fill-rule="evenodd"/><path fill="#1a56db" d="M 935.429688 170.09375 L 971.378906 170.09375 L 971.378906 126.117188 L 970.628906 126.117188 L 970.628906 169.175781 L 935.429688 169.175781 Z M 935.429688 170.09375 " fill-opacity="0.1" fill-rule="evenodd"/><path fill="#1a56db" d="M 971.378906 170.09375 L 1007.324219 170.09375 L 1007.324219 126.117188 L 1006.578125 126.117188 L 1006.578125 169.175781 L 971.378906 169.175781 Z M 971.378906 170.09375 " fill-opacity="0.1" fill-rule="evenodd"/><path fill="#1a56db" d="M 1007.324219 170.09375 L 1043.273438 170.09375 L 1043.273438 126.117188 L 1042.523438 126.117188 L 1042.523438 169.175781 L 1007.324219 169.175781 Z M 1007.324219 170.09375 " fill-opacity="0.1" fill-rule="evenodd"/><g clip-path="url(#54ba421e43)"><path fill="#1a56db" d="M 1043.273438 170.09375 L 1079.222656 170.09375 L 1079.222656 126.117188 L 1078.472656 126.117188 L 1078.472656 169.175781 L 1043.273438 169.175781 Z M 1043.273438 170.09375 " fill-opacity="0.1" fill-rule="evenodd"/></g><g clip-path="url(#a61f538cc7)"><path fill="#1a56db" d="M 0.777344 214.070312 L 36.726562 214.070312 L 36.726562 170.09375 L 35.976562 170.09375 L 35.976562 213.152344 L 0.777344 213.152344 Z M 0.777344 214.070312 " fill-opacity="0.1" fill-rule="evenodd"/></g><path fill="#1a56db" d="M 36.726562 214.070312 L 72.675781 214.070312 L 72.675781 170.09375 L 71.925781 170.09375 L 71.925781 213.152344 L 36.726562 213.152344 Z M 36.726562 214.070312 " fill-opacity="0.1" fill-rule="evenodd"/><path fill="#1a56db" d="M 72.675781 214.070312 L 108.621094 214.070312 L 108.621094 170.09375 L 107.875 170.09375 L 107.875 213.152344 L 72.675781 213.152344 Z M 72.675781 214.070312 " fill-opacity="0.1" fill-rule="evenodd"/><path fill="#1a56db" d="M 108.621094 214.070312 L 144.570312 214.070312 L 144.570312 170.09375 L 143.820312 170.09375 L 143.820312 213.152344 L 108.621094 213.152344 Z M 108.621094 214.070312 " fill-opacity="0.1" fill-rule="evenodd"/><path fill="#1a56db" d="M 144.570312 214.070312 L 180.519531 214.070312 L 180.519531 170.09375 L 179.769531 170.09375 L 179.769531 213.152344 L 144.570312 213.152344 Z M 144.570312 214.070312 " fill-opacity="0.1" fill-rule="evenodd"/><path fill="#1a56db" d="M 180.519531 214.070312 L 216.46875 214.070312 L 216.46875 170.09375 L 215.71875 170.09375 L 215.71875 213.152344 L 180.519531 213.152344 Z M 180.519531 214.070312 " fill-opacity="0.1" fill-rule="evenodd"/><path fill="#1a56db" d="M 216.46875 214.070312 L 252.414062 214.070312 L 252.414062 170.09375 L 251.667969 170.09375 L 251.667969 213.152344 L 216.46875 213.152344 Z M 216.46875 214.070312 " fill-opacity="0.1" fill-rule="evenodd"/><path fill="#1a56db" d="M 252.414062 214.070312 L 288.363281 214.070312 L 288.363281 170.09375 L 287.613281 170.09375 L 287.613281 213.152344 L 252.414062 213.152344 Z M 252.414062 214.070312 " fill-opacity="0.1" fill-rule="evenodd"/><path fill="#1a56db" d="M 288.363281 214.070312 L 324.3125 214.070312 L 324.3125 170.09375 L 323.5625 170.09375 L 323.5625 213.152344 L 288.363281 213.152344 Z M 288.363281 214.070312 " fill-opacity="0.1" fill-rule="evenodd"/><path fill="#0e1221" d="M 324.3125 170.09375 L 360.257812 170.09375 L 360.257812 214.070312 L 324.3125 214.070312 Z M 324.3125 170.09375 " fill-opacity="1" fill-rule="nonzero"/><path fill="#0e1221" d="M 324.3125 214.070312 L 360.257812 214.070312 L 360.257812 170.09375 L 359.511719 170.09375 L 359.511719 213.152344 L 324.3125 213.152344 Z M 324.3125 214.070312 " fill-opacity="1" fill-rule="evenodd"/><path fill="#1a56db" d="M 360.257812 214.070312 L 396.207031 214.070312 L 396.207031 170.09375 L 395.457031 170.09375 L 395.457031 213.152344 L 360.257812 213.152344 Z M 360.257812 214.070312 " fill-opacity="0.1" fill-rule="evenodd"/><path fill="#1a56db" d="M 396.207031 214.070312 L 432.15625 214.070312 L 432.15625 170.09375 L 431.40625 170.09375 L 431.40625 213.152344 L 396.207031 213.152344 Z M 396.207031 214.070312 " fill-opacity="0.1" fill-rule="evenodd"/><path fill="#1a56db" d="M 432.15625 214.070312 L 468.105469 214.070312 L 468.105469 170.09375 L 467.355469 170.09375 L 467.355469 213.152344 L 432.15625 213.152344 Z M 432.15625 214.070312 " fill-opacity="0.1" fill-rule="evenodd"/><path fill="#1a56db" d="M 468.105469 214.070312 L 504.050781 214.070312 L 504.050781 170.09375 L 503.304688 170.09375 L 503.304688 213.152344 L 468.105469 213.152344 Z M 468.105469 214.070312 " fill-opacity="0.1" fill-rule="evenodd"/><path fill="#1a56db" d="M 504.050781 214.070312 L 540 214.070312 L 540 170.09375 L 539.25 170.09375 L 539.25 213.152344 L 504.050781 213.152344 Z M 504.050781 214.070312 " fill-opacity="0.1" fill-rule="evenodd"/><path fill="#1a56db" d="M 540 214.070312 L 575.949219 214.070312 L 575.949219 170.09375 L 575.199219 170.09375 L 575.199219 213.152344 L 540 213.152344 Z M 540 214.070312 " fill-opacity="0.1" fill-rule="evenodd"/><path fill="#1a56db" d="M 575.949219 214.070312 L 611.894531 214.070312 L 611.894531 170.09375 L 611.148438 170.09375 L 611.148438 213.152344 L 575.949219 213.152344 Z M 575.949219 214.070312 " fill-opacity="0.1" fill-rule="evenodd"/><path fill="#1a56db" d="M 611.894531 214.070312 L 647.84375 214.070312 L 647.84375 170.09375 L 647.09375 170.09375 L 647.09375 213.152344 L 611.894531 213.152344 Z M 611.894531 214.070312 " fill-opacity="0.1" fill-rule="evenodd"/><path fill="#1a56db" d="M 647.84375 214.070312 L 683.792969 214.070312 L 683.792969 170.09375 L 683.042969 170.09375 L 683.042969 213.152344 L 647.84375 213.152344 Z M 647.84375 214.070312 " fill-opacity="0.1" fill-rule="evenodd"/><path fill="#1a56db" d="M 683.792969 214.070312 L 719.742188 214.070312 L 719.742188 170.09375 L 718.992188 170.09375 L 718.992188 213.152344 L 683.792969 213.152344 Z M 683.792969 214.070312 " fill-opacity="0.1" fill-rule="evenodd"/><path fill="#1a56db" d="M 719.742188 214.070312 L 755.6875 214.070312 L 755.6875 170.09375 L 754.941406 170.09375 L 754.941406 213.152344 L 719.742188 213.152344 Z M 719.742188 214.070312 " fill-opacity="0.1" fill-rule="evenodd"/><path fill="#1a56db" d="M 755.6875 214.070312 L 791.636719 214.070312 L 791.636719 170.09375 L 790.886719 170.09375 L 790.886719 213.152344 L 755.6875 213.152344 Z M 755.6875 214.070312 " fill-opacity="0.1" fill-rule="evenodd"/><path fill="#1a56db" d="M 791.636719 214.070312 L 827.585938 214.070312 L 827.585938 170.09375 L 826.835938 170.09375 L 826.835938 213.152344 L 791.636719 213.152344 Z M 791.636719 214.070312 " fill-opacity="0.1" fill-rule="evenodd"/><path fill="#0e1221" d="M 827.585938 170.09375 L 863.53125 170.09375 L 863.53125 214.070312 L 827.585938 214.070312 Z M 827.585938 170.09375 " fill-opacity="1" fill-rule="nonzero"/><path fill="#0e1221" d="M 827.585938 214.070312 L 863.53125 214.070312 L 863.53125 170.09375 L 862.785156 170.09375 L 862.785156 213.152344 L 827.585938 213.152344 Z M 827.585938 214.070312 " fill-opacity="1" fill-rule="evenodd"/><path fill="#1a56db" d="M 863.53125 214.070312 L 899.480469 214.070312 L 899.480469 170.09375 L 898.730469 170.09375 L 898.730469 213.152344 L 863.53125 213.152344 Z M 863.53125 214.070312 " fill-opacity="0.1" fill-rule="evenodd"/><path fill="#1a56db" d="M 899.480469 214.070312 L 935.429688 214.070312 L 935.429688 170.09375 L 934.679688 170.09375 L 934.679688 213.152344 L 899.480469 213.152344 Z M 899.480469 214.070312 " fill-opacity="0.1" fill-rule="evenodd"/><path fill="#1a56db" d="M 935.429688 214.070312 L 971.378906 214.070312 L 971.378906 170.09375 L 970.628906 170.09375 L 970.628906 213.152344 L 935.429688 213.152344 Z M 935.429688 214.070312 " fill-opacity="0.1" fill-rule="evenodd"/><path fill="#1a56db" d="M 971.378906 214.070312 L 1007.324219 214.070312 L 1007.324219 170.09375 L 1006.578125 170.09375 L 1006.578125 213.152344 L 971.378906 213.152344 Z M 971.378906 214.070312 " fill-opacity="0.1" fill-rule="evenodd"/><path fill="#1a56db" d="M 1007.324219 214.070312 L 1043.273438 214.070312 L 1043.273438 170.09375 L 1042.523438 170.09375 L 1042.523438 213.152344 L 1007.324219 213.152344 Z M 1007.324219 214.070312 " fill-opacity="0.1" fill-rule="evenodd"/><g clip-path="url(#2c9da3b5f0)"><path fill="#1a56db" d="M 1043.273438 214.070312 L 1079.222656 214.070312 L 1079.222656 170.09375 L 1078.472656 170.09375 L 1078.472656 213.152344 L 1043.273438 213.152344 Z M 1043.273438 214.070312 " fill-opacity="0.1" fill-rule="evenodd"/></g><g clip-path="url(#0faf1899c4)"><path fill="#1a56db" d="M 0.777344 258.046875 L 36.726562 258.046875 L 36.726562 214.070312 L 35.976562 214.070312 L 35.976562 257.128906 L 0.777344 257.128906 Z M 0.777344 258.046875 " fill-opacity="0.1" fill-rule="evenodd"/></g><path fill="#1a56db" d="M 36.726562 258.046875 L 72.675781 258.046875 L 72.675781 214.070312 L 71.925781 214.070312 L 71.925781 257.128906 L 36.726562 257.128906 Z M 36.726562 258.046875 " fill-opacity="0.1" fill-rule="evenodd"/><path fill="#1a56db" d="M 72.675781 258.046875 L 108.621094 258.046875 L 108.621094 214.070312 L 107.875 214.070312 L 107.875 257.128906 L 72.675781 257.128906 Z M 72.675781 258.046875 " fill-opacity="0.1" fill-rule="evenodd"/><path fill="#1a56db" d="M 108.621094 258.046875 L 144.570312 258.046875 L 144.570312 214.070312 L 143.820312 214.070312 L 143.820312 257.128906 L 108.621094 257.128906 Z M 108.621094 258.046875 " fill-opacity="0.1" fill-rule="evenodd"/><path fill="#0e1221" d="M 144.570312 214.070312 L 180.519531 214.070312 L 180.519531 258.046875 L 144.570312 258.046875 Z M 144.570312 214.070312 " fill-opacity="1" fill-rule="nonzero"/><path fill="#0e1221" d="M 144.570312 258.046875 L 180.519531 258.046875 L 180.519531 214.070312 L 179.769531 214.070312 L 179.769531 257.128906 L 144.570312 257.128906 Z M 144.570312 258.046875 " fill-opacity="1" fill-rule="evenodd"/><path fill="#1a56db" d="M 180.519531 258.046875 L 216.46875 258.046875 L 216.46875 214.070312 L 215.71875 214.070312 L 215.71875 257.128906 L 180.519531 257.128906 Z M 180.519531 258.046875 " fill-opacity="0.1" fill-rule="evenodd"/><path fill="#1a56db" d="M 216.46875 258.046875 L 252.414062 258.046875 L 252.414062 214.070312 L 251.667969 214.070312 L 251.667969 257.128906 L 216.46875 257.128906 Z M 216.46875 258.046875 " fill-opacity="0.1" fill-rule="evenodd"/><path fill="#1a56db" d="M 252.414062 258.046875 L 288.363281 258.046875 L 288.363281 214.070312 L 287.613281 214.070312 L 287.613281 257.128906 L 252.414062 257.128906 Z M 252.414062 258.046875 " fill-opacity="0.1" fill-rule="evenodd"/><path fill="#1a56db" d="M 288.363281 258.046875 L 324.3125 258.046875 L 324.3125 214.070312 L 323.5625 214.070312 L 323.5625 257.128906 L 288.363281 257.128906 Z M 288.363281 258.046875 " fill-opacity="0.1" fill-rule="evenodd"/><path fill="#1a56db" d="M 324.3125 258.046875 L 360.257812 258.046875 L 360.257812 214.070312 L 359.511719 214.070312 L 359.511719 257.128906 L 324.3125 257.128906 Z M 324.3125 258.046875 " fill-opacity="0.1" fill-rule="evenodd"/><path fill="#1a56db" d="M 360.257812 258.046875 L 396.207031 258.046875 L 396.207031 214.070312 L 395.457031 214.070312 L 395.457031 257.128906 L 360.257812 257.128906 Z M 360.257812 258.046875 " fill-opacity="0.1" fill-rule="evenodd"/><path fill="#1a56db" d="M 396.207031 258.046875 L 432.15625 258.046875 L 432.15625 214.070312 L 431.40625 214.070312 L 431.40625 257.128906 L 396.207031 257.128906 Z M 396.207031 258.046875 " fill-opacity="0.1" fill-rule="evenodd"/><path fill="#1a56db" d="M 432.15625 258.046875 L 468.105469 258.046875 L 468.105469 214.070312 L 467.355469 214.070312 L 467.355469 257.128906 L 432.15625 257.128906 Z M 432.15625 258.046875 " fill-opacity="0.1" fill-rule="evenodd"/><path fill="#0e1221" d="M 468.105469 214.070312 L 504.050781 214.070312 L 504.050781 258.046875 L 468.105469 258.046875 Z M 468.105469 214.070312 " fill-opacity="1" fill-rule="nonzero"/><path fill="#0e1221" d="M 468.105469 258.046875 L 504.050781 258.046875 L 504.050781 214.070312 L 503.304688 214.070312 L 503.304688 257.128906 L 468.105469 257.128906 Z M 468.105469 258.046875 " fill-opacity="1" fill-rule="evenodd"/><path fill="#1a56db" d="M 504.050781 258.046875 L 540 258.046875 L 540 214.070312 L 539.25 214.070312 L 539.25 257.128906 L 504.050781 257.128906 Z M 504.050781 258.046875 " fill-opacity="0.1" fill-rule="evenodd"/><path fill="#1a56db" d="M 540 258.046875 L 575.949219 258.046875 L 575.949219 214.070312 L 575.199219 214.070312 L 575.199219 257.128906 L 540 257.128906 Z M 540 258.046875 " fill-opacity="0.1" fill-rule="evenodd"/><path fill="#1a56db" d="M 575.949219 258.046875 L 611.894531 258.046875 L 611.894531 214.070312 L 611.148438 214.070312 L 611.148438 257.128906 L 575.949219 257.128906 Z M 575.949219 258.046875 " fill-opacity="0.1" fill-rule="evenodd"/><path fill="#1a56db" d="M 611.894531 258.046875 L 647.84375 258.046875 L 647.84375 214.070312 L 647.09375 214.070312 L 647.09375 257.128906 L 611.894531 257.128906 Z M 611.894531 258.046875 " fill-opacity="0.1" fill-rule="evenodd"/><path fill="#1a56db" d="M 647.84375 258.046875 L 683.792969 258.046875 L 683.792969 214.070312 L 683.042969 214.070312 L 683.042969 257.128906 L 647.84375 257.128906 Z M 647.84375 258.046875 " fill-opacity="0.1" fill-rule="evenodd"/><path fill="#1a56db" d="M 683.792969 258.046875 L 719.742188 258.046875 L 719.742188 214.070312 L 718.992188 214.070312 L 718.992188 257.128906 L 683.792969 257.128906 Z M 683.792969 258.046875 " fill-opacity="0.1" fill-rule="evenodd"/><path fill="#0e1221" d="M 719.742188 214.070312 L 755.6875 214.070312 L 755.6875 258.046875 L 719.742188 258.046875 Z M 719.742188 214.070312 " fill-opacity="1" fill-rule="nonzero"/><path fill="#0e1221" d="M 719.742188 258.046875 L 755.6875 258.046875 L 755.6875 214.070312 L 754.941406 214.070312 L 754.941406 257.128906 L 719.742188 257.128906 Z M 719.742188 258.046875 " fill-opacity="1" fill-rule="evenodd"/><path fill="#1a56db" d="M 755.6875 258.046875 L 791.636719 258.046875 L 791.636719 214.070312 L 790.886719 214.070312 L 790.886719 257.128906 L 755.6875 257.128906 Z M 755.6875 258.046875 " fill-opacity="0.1" fill-rule="evenodd"/><path fill="#1a56db" d="M 791.636719 258.046875 L 827.585938 258.046875 L 827.585938 214.070312 L 826.835938 214.070312 L 826.835938 257.128906 L 791.636719 257.128906 Z M 791.636719 258.046875 " fill-opacity="0.1" fill-rule="evenodd"/><path fill="#1a56db" d="M 827.585938 258.046875 L 863.53125 258.046875 L 863.53125 214.070312 L 862.785156 214.070312 L 862.785156 257.128906 L 827.585938 257.128906 Z M 827.585938 258.046875 " fill-opacity="0.1" fill-rule="evenodd"/><path fill="#1a56db" d="M 863.53125 258.046875 L 899.480469 258.046875 L 899.480469 214.070312 L 898.730469 214.070312 L 898.730469 257.128906 L 863.53125 257.128906 Z M 863.53125 258.046875 " fill-opacity="0.1" fill-rule="evenodd"/><path fill="#1a56db" d="M 899.480469 258.046875 L 935.429688 258.046875 L 935.429688 214.070312 L 934.679688 214.070312 L 934.679688 257.128906 L 899.480469 257.128906 Z M 899.480469 258.046875 " fill-opacity="0.1" fill-rule="evenodd"/><path fill="#1a56db" d="M 935.429688 258.046875 L 971.378906 258.046875 L 971.378906 214.070312 L 970.628906 214.070312 L 970.628906 257.128906 L 935.429688 257.128906 Z M 935.429688 258.046875 " fill-opacity="0.1" fill-rule="evenodd"/><path fill="#1a56db" d="M 971.378906 258.046875 L 1007.324219 258.046875 L 1007.324219 214.070312 L 1006.578125 214.070312 L 1006.578125 257.128906 L 971.378906 257.128906 Z M 971.378906 258.046875 " fill-opacity="0.1" fill-rule="evenodd"/><path fill="#1a56db" d="M 1007.324219 258.046875 L 1043.273438 258.046875 L 1043.273438 214.070312 L 1042.523438 214.070312 L 1042.523438 257.128906 L 1007.324219 257.128906 Z M 1007.324219 258.046875 " fill-opacity="0.1" fill-rule="evenodd"/><g clip-path="url(#b50ad9d53e)"><path fill="#1a56db" d="M 1043.273438 258.046875 L 1079.222656 258.046875 L 1079.222656 214.070312 L 1078.472656 214.070312 L 1078.472656 257.128906 L 1043.273438 257.128906 Z M 1043.273438 258.046875 " fill-opacity="0.1" fill-rule="evenodd"/></g><g clip-path="url(#0d57fefce2)"><path fill="#1a56db" d="M 0.777344 302.023438 L 36.726562 302.023438 L 36.726562 258.046875 L 35.976562 258.046875 L 35.976562 301.109375 L 0.777344 301.109375 Z M 0.777344 302.023438 " fill-opacity="0.1" fill-rule="evenodd"/></g><path fill="#0e1221" d="M 36.726562 258.046875 L 72.675781 258.046875 L 72.675781 302.023438 L 36.726562 302.023438 Z M 36.726562 258.046875 " fill-opacity="1" fill-rule="nonzero"/><path fill="#0e1221" d="M 36.726562 302.023438 L 72.675781 302.023438 L 72.675781 258.046875 L 71.925781 258.046875 L 71.925781 301.109375 L 36.726562 301.109375 Z M 36.726562 302.023438 " fill-opacity="1" fill-rule="evenodd"/><path fill="#1a56db" d="M 72.675781 302.023438 L 108.621094 302.023438 L 108.621094 258.046875 L 107.875 258.046875 L 107.875 301.109375 L 72.675781 301.109375 Z M 72.675781 302.023438 " fill-opacity="0.1" fill-rule="evenodd"/><path fill="#0e1221" d="M 108.621094 302.023438 L 144.570312 302.023438 L 144.570312 258.046875 L 143.820312 258.046875 L 143.820312 301.109375 L 108.621094 301.109375 Z M 108.621094 302.023438 " fill-opacity="1" fill-rule="evenodd"/><path fill="#1a56db" d="M 144.570312 302.023438 L 180.519531 302.023438 L 180.519531 258.046875 L 179.769531 258.046875 L 179.769531 301.109375 L 144.570312 301.109375 Z M 144.570312 302.023438 " fill-opacity="0.1" fill-rule="evenodd"/><path fill="#1a56db" d="M 180.519531 302.023438 L 216.46875 302.023438 L 216.46875 258.046875 L 215.71875 258.046875 L 215.71875 301.109375 L 180.519531 301.109375 Z M 180.519531 302.023438 " fill-opacity="0.1" fill-rule="evenodd"/><path fill="#1a56db" d="M 216.46875 302.023438 L 252.414062 302.023438 L 252.414062 258.046875 L 251.667969 258.046875 L 251.667969 301.109375 L 216.46875 301.109375 Z M 216.46875 302.023438 " fill-opacity="0.1" fill-rule="evenodd"/><path fill="#0e1221" d="M 252.414062 258.046875 L 288.363281 258.046875 L 288.363281 302.023438 L 252.414062 302.023438 Z M 252.414062 258.046875 " fill-opacity="1" fill-rule="nonzero"/><path fill="#0e1221" d="M 252.414062 302.023438 L 288.363281 302.023438 L 288.363281 258.046875 L 287.613281 258.046875 L 287.613281 301.109375 L 252.414062 301.109375 Z M 252.414062 302.023438 " fill-opacity="1" fill-rule="evenodd"/><path fill="#1a56db" d="M 288.363281 302.023438 L 324.3125 302.023438 L 324.3125 258.046875 L 323.5625 258.046875 L 323.5625 301.109375 L 288.363281 301.109375 Z M 288.363281 302.023438 " fill-opacity="0.1" fill-rule="evenodd"/><path fill="#1a56db" d="M 324.3125 302.023438 L 360.257812 302.023438 L 360.257812 258.046875 L 359.511719 258.046875 L 359.511719 301.109375 L 324.3125 301.109375 Z M 324.3125 302.023438 " fill-opacity="0.1" fill-rule="evenodd"/><path fill="#1a56db" d="M 360.257812 302.023438 L 396.207031 302.023438 L 396.207031 258.046875 L 395.457031 258.046875 L 395.457031 301.109375 L 360.257812 301.109375 Z M 360.257812 302.023438 " fill-opacity="0.1" fill-rule="evenodd"/><path fill="#1a56db" d="M 396.207031 302.023438 L 432.15625 302.023438 L 432.15625 258.046875 L 431.40625 258.046875 L 431.40625 301.109375 L 396.207031 301.109375 Z M 396.207031 302.023438 " fill-opacity="0.1" fill-rule="evenodd"/><path fill="#1a56db" d="M 432.15625 302.023438 L 468.105469 302.023438 L 468.105469 258.046875 L 467.355469 258.046875 L 467.355469 301.109375 L 432.15625 301.109375 Z M 432.15625 302.023438 " fill-opacity="0.1" fill-rule="evenodd"/><path fill="#1a56db" d="M 468.105469 302.023438 L 504.050781 302.023438 L 504.050781 258.046875 L 503.304688 258.046875 L 503.304688 301.109375 L 468.105469 301.109375 Z M 468.105469 302.023438 " fill-opacity="0.1" fill-rule="evenodd"/><path fill="#0e1221" d="M 504.050781 302.023438 L 540 302.023438 L 540 258.046875 L 539.25 258.046875 L 539.25 301.109375 L 504.050781 301.109375 Z M 504.050781 302.023438 " fill-opacity="1" fill-rule="evenodd"/><path fill="#0e1221" d="M 540 258.046875 L 575.949219 258.046875 L 575.949219 302.023438 L 540 302.023438 Z M 540 258.046875 " fill-opacity="1" fill-rule="nonzero"/><path fill="#0e1221" d="M 540 302.023438 L 575.949219 302.023438 L 575.949219 258.046875 L 575.199219 258.046875 L 575.199219 301.109375 L 540 301.109375 Z M 540 302.023438 " fill-opacity="1" fill-rule="evenodd"/><path fill="#1a56db" d="M 575.949219 302.023438 L 611.894531 302.023438 L 611.894531 258.046875 L 611.148438 258.046875 L 611.148438 301.109375 L 575.949219 301.109375 Z M 575.949219 302.023438 " fill-opacity="0.1" fill-rule="evenodd"/><path fill="#1a56db" d="M 611.894531 302.023438 L 647.84375 302.023438 L 647.84375 258.046875 L 647.09375 258.046875 L 647.09375 301.109375 L 611.894531 301.109375 Z M 611.894531 302.023438 " fill-opacity="0.1" fill-rule="evenodd"/><path fill="#1a56db" d="M 647.84375 302.023438 L 683.792969 302.023438 L 683.792969 258.046875 L 683.042969 258.046875 L 683.042969 301.109375 L 647.84375 301.109375 Z M 647.84375 302.023438 " fill-opacity="0.1" fill-rule="evenodd"/><path fill="#1a56db" d="M 683.792969 302.023438 L 719.742188 302.023438 L 719.742188 258.046875 L 718.992188 258.046875 L 718.992188 301.109375 L 683.792969 301.109375 Z M 683.792969 302.023438 " fill-opacity="0.1" fill-rule="evenodd"/><path fill="#1a56db" d="M 719.742188 302.023438 L 755.6875 302.023438 L 755.6875 258.046875 L 754.941406 258.046875 L 754.941406 301.109375 L 719.742188 301.109375 Z M 719.742188 302.023438 " fill-opacity="0.1" fill-rule="evenodd"/><path fill="#1a56db" d="M 755.6875 302.023438 L 791.636719 302.023438 L 791.636719 258.046875 L 790.886719 258.046875 L 790.886719 301.109375 L 755.6875 301.109375 Z M 755.6875 302.023438 " fill-opacity="0.1" fill-rule="evenodd"/><path fill="#1a56db" d="M 791.636719 302.023438 L 827.585938 302.023438 L 827.585938 258.046875 L 826.835938 258.046875 L 826.835938 301.109375 L 791.636719 301.109375 Z M 791.636719 302.023438 " fill-opacity="0.1" fill-rule="evenodd"/><path fill="#1a56db" d="M 827.585938 302.023438 L 863.53125 302.023438 L 863.53125 258.046875 L 862.785156 258.046875 L 862.785156 301.109375 L 827.585938 301.109375 Z M 827.585938 302.023438 " fill-opacity="0.1" fill-rule="evenodd"/><path fill="#0e1221" d="M 863.53125 258.046875 L 899.480469 258.046875 L 899.480469 302.023438 L 863.53125 302.023438 Z M 863.53125 258.046875 " fill-opacity="1" fill-rule="nonzero"/><path fill="#0e1221" d="M 863.53125 302.023438 L 899.480469 302.023438 L 899.480469 258.046875 L 898.730469 258.046875 L 898.730469 301.109375 L 863.53125 301.109375 Z M 863.53125 302.023438 " fill-opacity="1" fill-rule="evenodd"/><path fill="#1a56db" d="M 899.480469 302.023438 L 935.429688 302.023438 L 935.429688 258.046875 L 934.679688 258.046875 L 934.679688 301.109375 L 899.480469 301.109375 Z M 899.480469 302.023438 " fill-opacity="0.1" fill-rule="evenodd"/><path fill="#1a56db" d="M 935.429688 302.023438 L 971.378906 302.023438 L 971.378906 258.046875 L 970.628906 258.046875 L 970.628906 301.109375 L 935.429688 301.109375 Z M 935.429688 302.023438 " fill-opacity="0.1" fill-rule="evenodd"/><path fill="#1a56db" d="M 971.378906 302.023438 L 1007.324219 302.023438 L 1007.324219 258.046875 L 1006.578125 258.046875 L 1006.578125 301.109375 L 971.378906 301.109375 Z M 971.378906 302.023438 " fill-opacity="0.1" fill-rule="evenodd"/><path fill="#1a56db" d="M 1007.324219 302.023438 L 1043.273438 302.023438 L 1043.273438 258.046875 L 1042.523438 258.046875 L 1042.523438 301.109375 L 1007.324219 301.109375 Z M 1007.324219 302.023438 " fill-opacity="0.1" fill-rule="evenodd"/><g clip-path="url(#6d5c53c8a3)"><path fill="#1a56db" d="M 1043.273438 302.023438 L 1079.222656 302.023438 L 1079.222656 258.046875 L 1078.472656 258.046875 L 1078.472656 301.109375 L 1043.273438 301.109375 Z M 1043.273438 302.023438 " fill-opacity="0.1" fill-rule="evenodd"/></g><g clip-path="url(#f218044088)"><path fill="#1a56db" d="M 0.777344 346 L 36.726562 346 L 36.726562 302.023438 L 35.976562 302.023438 L 35.976562 345.085938 L 0.777344 345.085938 Z M 0.777344 346 " fill-opacity="0.1" fill-rule="evenodd"/></g><path fill="#1a56db" d="M 36.726562 346 L 72.675781 346 L 72.675781 302.023438 L 71.925781 302.023438 L 71.925781 345.085938 L 36.726562 345.085938 Z M 36.726562 346 " fill-opacity="0.1" fill-rule="evenodd"/><path fill="#1a56db" d="M 72.675781 346 L 108.621094 346 L 108.621094 302.023438 L 107.875 302.023438 L 107.875 345.085938 L 72.675781 345.085938 Z M 72.675781 346 " fill-opacity="0.1" fill-rule="evenodd"/><path fill="#1a56db" d="M 108.621094 346 L 144.570312 346 L 144.570312 302.023438 L 143.820312 302.023438 L 143.820312 345.085938 L 108.621094 345.085938 Z M 108.621094 346 " fill-opacity="0.1" fill-rule="evenodd"/><path fill="#1a56db" d="M 144.570312 346 L 180.519531 346 L 180.519531 302.023438 L 179.769531 302.023438 L 179.769531 345.085938 L 144.570312 345.085938 Z M 144.570312 346 " fill-opacity="0.1" fill-rule="evenodd"/><path fill="#1a56db" d="M 180.519531 346 L 216.46875 346 L 216.46875 302.023438 L 215.71875 302.023438 L 215.71875 345.085938 L 180.519531 345.085938 Z M 180.519531 346 " fill-opacity="0.1" fill-rule="evenodd"/><path fill="#1a56db" d="M 216.46875 346 L 252.414062 346 L 252.414062 302.023438 L 251.667969 302.023438 L 251.667969 345.085938 L 216.46875 345.085938 Z M 216.46875 346 " fill-opacity="0.1" fill-rule="evenodd"/><path fill="#1a56db" d="M 252.414062 346 L 288.363281 346 L 288.363281 302.023438 L 287.613281 302.023438 L 287.613281 345.085938 L 252.414062 345.085938 Z M 252.414062 346 " fill-opacity="0.1" fill-rule="evenodd"/><path fill="#1a56db" d="M 288.363281 346 L 324.3125 346 L 324.3125 302.023438 L 323.5625 302.023438 L 323.5625 345.085938 L 288.363281 345.085938 Z M 288.363281 346 " fill-opacity="0.1" fill-rule="evenodd"/><path fill="#1a56db" d="M 324.3125 346 L 360.257812 346 L 360.257812 302.023438 L 359.511719 302.023438 L 359.511719 345.085938 L 324.3125 345.085938 Z M 324.3125 346 " fill-opacity="0.1" fill-rule="evenodd"/><path fill="#1a56db" d="M 360.257812 346 L 396.207031 346 L 396.207031 302.023438 L 395.457031 302.023438 L 395.457031 345.085938 L 360.257812 345.085938 Z M 360.257812 346 " fill-opacity="0.1" fill-rule="evenodd"/><path fill="#1a56db" d="M 396.207031 346 L 432.15625 346 L 432.15625 302.023438 L 431.40625 302.023438 L 431.40625 345.085938 L 396.207031 345.085938 Z M 396.207031 346 " fill-opacity="0.1" fill-rule="evenodd"/><path fill="#1a56db" d="M 432.15625 346 L 468.105469 346 L 468.105469 302.023438 L 467.355469 302.023438 L 467.355469 345.085938 L 432.15625 345.085938 Z M 432.15625 346 " fill-opacity="0.1" fill-rule="evenodd"/><path fill="#1a56db" d="M 468.105469 346 L 504.050781 346 L 504.050781 302.023438 L 503.304688 302.023438 L 503.304688 345.085938 L 468.105469 345.085938 Z M 468.105469 346 " fill-opacity="0.1" fill-rule="evenodd"/><path fill="#1a56db" d="M 504.050781 346 L 540 346 L 540 302.023438 L 539.25 302.023438 L 539.25 345.085938 L 504.050781 345.085938 Z M 504.050781 346 " fill-opacity="0.1" fill-rule="evenodd"/><path fill="#1a56db" d="M 540 346 L 575.949219 346 L 575.949219 302.023438 L 575.199219 302.023438 L 575.199219 345.085938 L 540 345.085938 Z M 540 346 " fill-opacity="0.1" fill-rule="evenodd"/><path fill="#1a56db" d="M 575.949219 346 L 611.894531 346 L 611.894531 302.023438 L 611.148438 302.023438 L 611.148438 345.085938 L 575.949219 345.085938 Z M 575.949219 346 " fill-opacity="0.1" fill-rule="evenodd"/><path fill="#1a56db" d="M 611.894531 346 L 647.84375 346 L 647.84375 302.023438 L 647.09375 302.023438 L 647.09375 345.085938 L 611.894531 345.085938 Z M 611.894531 346 " fill-opacity="0.1" fill-rule="evenodd"/><path fill="#1a56db" d="M 647.84375 346 L 683.792969 346 L 683.792969 302.023438 L 683.042969 302.023438 L 683.042969 345.085938 L 647.84375 345.085938 Z M 647.84375 346 " fill-opacity="0.1" fill-rule="evenodd"/><path fill="#1a56db" d="M 683.792969 346 L 719.742188 346 L 719.742188 302.023438 L 718.992188 302.023438 L 718.992188 345.085938 L 683.792969 345.085938 Z M 683.792969 346 " fill-opacity="0.1" fill-rule="evenodd"/><path fill="#1a56db" d="M 719.742188 346 L 755.6875 346 L 755.6875 302.023438 L 754.941406 302.023438 L 754.941406 345.085938 L 719.742188 345.085938 Z M 719.742188 346 " fill-opacity="0.1" fill-rule="evenodd"/><path fill="#1a56db" d="M 755.6875 346 L 791.636719 346 L 791.636719 302.023438 L 790.886719 302.023438 L 790.886719 345.085938 L 755.6875 345.085938 Z M 755.6875 346 " fill-opacity="0.1" fill-rule="evenodd"/><path fill="#1a56db" d="M 791.636719 346 L 827.585938 346 L 827.585938 302.023438 L 826.835938 302.023438 L 826.835938 345.085938 L 791.636719 345.085938 Z M 791.636719 346 " fill-opacity="0.1" fill-rule="evenodd"/><path fill="#1a56db" d="M 827.585938 346 L 863.53125 346 L 863.53125 302.023438 L 862.785156 302.023438 L 862.785156 345.085938 L 827.585938 345.085938 Z M 827.585938 346 " fill-opacity="0.1" fill-rule="evenodd"/><path fill="#1a56db" d="M 863.53125 346 L 899.480469 346 L 899.480469 302.023438 L 898.730469 302.023438 L 898.730469 345.085938 L 863.53125 345.085938 Z M 863.53125 346 " fill-opacity="0.1" fill-rule="evenodd"/><path fill="#1a56db" d="M 899.480469 346 L 935.429688 346 L 935.429688 302.023438 L 934.679688 302.023438 L 934.679688 345.085938 L 899.480469 345.085938 Z M 899.480469 346 " fill-opacity="0.1" fill-rule="evenodd"/><path fill="#1a56db" d="M 935.429688 346 L 971.378906 346 L 971.378906 302.023438 L 970.628906 302.023438 L 970.628906 345.085938 L 935.429688 345.085938 Z M 935.429688 346 " fill-opacity="0.1" fill-rule="evenodd"/><path fill="#1a56db" d="M 971.378906 346 L 1007.324219 346 L 1007.324219 302.023438 L 1006.578125 302.023438 L 1006.578125 345.085938 L 971.378906 345.085938 Z M 971.378906 346 " fill-opacity="0.1" fill-rule="evenodd"/><path fill="#1a56db" d="M 1007.324219 346 L 1043.273438 346 L 1043.273438 302.023438 L 1042.523438 302.023438 L 1042.523438 345.085938 L 1007.324219 345.085938 Z M 1007.324219 346 " fill-opacity="0.1" fill-rule="evenodd"/><g clip-path="url(#a43fd1f863)"><path fill="#1a56db" d="M 1043.273438 346 L 1079.222656 346 L 1079.222656 302.023438 L 1078.472656 302.023438 L 1078.472656 345.085938 L 1043.273438 345.085938 Z M 1043.273438 346 " fill-opacity="0.1" fill-rule="evenodd"/></g></g></g></g></g></svg>