<svg width="111" height="16" viewBox="0 0 111 16" fill="none" xmlns="http://www.w3.org/2000/svg">
<path d="M4.63635 12.64C3.86168 12.64 3.20368 12.5 2.66235 12.22C2.12101 11.94 1.63568 11.5293 1.20635 10.988L2.29835 9.896C2.56901 10.288 2.89101 10.596 3.26435 10.82C3.63768 11.0347 4.11368 11.142 4.69235 11.142C5.23368 11.142 5.66301 11.03 5.98035 10.806C6.30701 10.582 6.47035 10.274 6.47035 9.882C6.47035 9.55533 6.38635 9.28933 6.21835 9.084C6.05035 8.87867 5.82635 8.71067 5.54635 8.58C5.27568 8.44 4.97235 8.31867 4.63635 8.216C4.30968 8.104 3.97835 7.98267 3.64235 7.852C3.31568 7.712 3.01235 7.53933 2.73235 7.334C2.46168 7.12867 2.24235 6.86267 2.07435 6.536C1.90635 6.20933 1.82235 5.794 1.82235 5.29C1.82235 4.71133 1.96235 4.22133 2.24235 3.82C2.53168 3.40933 2.91901 3.09667 3.40435 2.882C3.88968 2.66733 4.43101 2.56 5.02835 2.56C5.67235 2.56 6.24635 2.686 6.75035 2.938C7.26368 3.19 7.67901 3.512 7.99635 3.904L6.90435 4.996C6.62435 4.67867 6.33035 4.44533 6.02235 4.296C5.72368 4.13733 5.37835 4.058 4.98635 4.058C4.50101 4.058 4.11835 4.156 3.83835 4.352C3.56768 4.548 3.43235 4.82333 3.43235 5.178C3.43235 5.47667 3.51635 5.71933 3.68435 5.906C3.85235 6.08333 4.07168 6.23733 4.34235 6.368C4.62235 6.48933 4.92568 6.606 5.25235 6.718C5.58835 6.83 5.91968 6.956 6.24635 7.096C6.58235 7.236 6.88568 7.418 7.15635 7.642C7.43635 7.85667 7.66035 8.13667 7.82835 8.482C7.99635 8.82733 8.08035 9.26133 8.08035 9.784C8.08035 10.6613 7.76768 11.3567 7.14235 11.87C6.52635 12.3833 5.69101 12.64 4.63635 12.64ZM12.2076 12.64C11.6009 12.64 11.0503 12.486 10.5556 12.178C10.0703 11.87 9.68295 11.4547 9.39361 10.932C9.11361 10.4 8.97361 9.80733 8.97361 9.154C8.97361 8.49133 9.11361 7.89867 9.39361 7.376C9.68295 6.844 10.0703 6.424 10.5556 6.116C11.0503 5.79867 11.6009 5.64 12.2076 5.64C12.7209 5.64 13.1736 5.752 13.5656 5.976C13.9669 6.19067 14.2843 6.48933 14.5176 6.872C14.7509 7.25467 14.8676 7.68867 14.8676 8.174V10.106C14.8676 10.5913 14.7509 11.0253 14.5176 11.408C14.2936 11.7907 13.9809 12.094 13.5796 12.318C13.1783 12.5327 12.7209 12.64 12.2076 12.64ZM12.4596 11.184C13.0289 11.184 13.4863 10.9927 13.8316 10.61C14.1863 10.2273 14.3636 9.73733 14.3636 9.14C14.3636 8.73867 14.2843 8.384 14.1256 8.076C13.9669 7.768 13.7429 7.53 13.4536 7.362C13.1736 7.18467 12.8423 7.096 12.4596 7.096C12.0863 7.096 11.7549 7.18467 11.4656 7.362C11.1856 7.53 10.9616 7.768 10.7936 8.076C10.6349 8.384 10.5556 8.73867 10.5556 9.14C10.5556 9.54133 10.6349 9.896 10.7936 10.204C10.9616 10.512 11.1856 10.7547 11.4656 10.932C11.7549 11.1 12.0863 11.184 12.4596 11.184ZM14.2656 12.5V10.694L14.5316 9.056L14.2656 7.432V5.78H15.8056V12.5H14.2656ZM17.5147 12.5V2.42H19.0547V12.5H17.5147ZM23.5826 12.64C22.9759 12.64 22.4253 12.486 21.9306 12.178C21.4453 11.87 21.0579 11.4547 20.7686 10.932C20.4886 10.4 20.3486 9.80733 20.3486 9.154C20.3486 8.49133 20.4886 7.89867 20.7686 7.376C21.0579 6.844 21.4453 6.424 21.9306 6.116C22.4253 5.79867 22.9759 5.64 23.5826 5.64C24.0959 5.64 24.5486 5.752 24.9406 5.976C25.3419 6.19067 25.6593 6.48933 25.8926 6.872C26.1259 7.25467 26.2426 7.68867 26.2426 8.174V10.106C26.2426 10.5913 26.1259 11.0253 25.8926 11.408C25.6686 11.7907 25.3559 12.094 24.9546 12.318C24.5533 12.5327 24.0959 12.64 23.5826 12.64ZM23.8346 11.184C24.2173 11.184 24.5486 11.1 24.8286 10.932C25.1179 10.7547 25.3419 10.512 25.5006 10.204C25.6593 9.896 25.7386 9.54133 25.7386 9.14C25.7386 8.73867 25.6593 8.384 25.5006 8.076C25.3419 7.768 25.1179 7.53 24.8286 7.362C24.5486 7.18467 24.2173 7.096 23.8346 7.096C23.4613 7.096 23.1299 7.18467 22.8406 7.362C22.5606 7.53 22.3366 7.768 22.1686 8.076C22.0099 8.384 21.9306 8.73867 21.9306 9.14C21.9306 9.54133 22.0099 9.896 22.1686 10.204C22.3366 10.512 22.5606 10.7547 22.8406 10.932C23.1299 11.1 23.4613 11.184 23.8346 11.184ZM27.1806 12.5H25.6406V10.694L25.9066 9.056L25.6406 7.432V2.42H27.1806V12.5ZM31.9697 12.64C31.3164 12.64 30.7237 12.486 30.1917 12.178C29.6597 11.8607 29.235 11.436 28.9177 10.904C28.6097 10.372 28.4557 9.77933 28.4557 9.126C28.4557 8.47267 28.6097 7.88467 28.9177 7.362C29.235 6.83933 29.6597 6.424 30.1917 6.116C30.7237 5.79867 31.3164 5.64 31.9697 5.64C32.6324 5.64 33.2297 5.794 33.7617 6.102C34.2937 6.41 34.7137 6.83 35.0217 7.362C35.339 7.88467 35.4977 8.47267 35.4977 9.126C35.4977 9.77933 35.339 10.372 35.0217 10.904C34.7137 11.436 34.2937 11.8607 33.7617 12.178C33.2297 12.486 32.6324 12.64 31.9697 12.64ZM31.9697 11.156C32.3524 11.156 32.6884 11.072 32.9777 10.904C33.2764 10.7267 33.505 10.484 33.6637 10.176C33.8317 9.868 33.9157 9.518 33.9157 9.126C33.9157 8.734 33.8317 8.38867 33.6637 8.09C33.4957 7.79133 33.267 7.558 32.9777 7.39C32.6884 7.21267 32.3524 7.124 31.9697 7.124C31.5964 7.124 31.2604 7.21267 30.9617 7.39C30.6724 7.558 30.4437 7.79133 30.2757 8.09C30.117 8.38867 30.0377 8.734 30.0377 9.126C30.0377 9.518 30.117 9.868 30.2757 10.176C30.4437 10.484 30.6724 10.7267 30.9617 10.904C31.2604 11.072 31.5964 11.156 31.9697 11.156ZM38.6666 12.5L42.6986 2.7H43.8186L47.8226 12.5H46.0866L42.9506 4.562H43.5386L40.3746 12.5H38.6666ZM40.6546 10.61V9.21H45.8486V10.61H40.6546ZM52.6127 12.64C52.0994 12.64 51.642 12.5327 51.2407 12.318C50.8394 12.094 50.522 11.7907 50.2887 11.408C50.0647 11.0253 49.9527 10.5913 49.9527 10.106V8.174C49.9527 7.68867 50.0694 7.25467 50.3027 6.872C50.536 6.48933 50.8534 6.19067 51.2547 5.976C51.656 5.752 52.1087 5.64 52.6127 5.64C53.2194 5.64 53.7654 5.79867 54.2507 6.116C54.7454 6.424 55.1327 6.844 55.4127 7.376C55.702 7.89867 55.8467 8.49133 55.8467 9.154C55.8467 9.80733 55.702 10.4 55.4127 10.932C55.1327 11.4547 54.7454 11.87 54.2507 12.178C53.7654 12.486 53.2194 12.64 52.6127 12.64ZM52.3607 11.184C52.734 11.184 53.0607 11.1 53.3407 10.932C53.63 10.7547 53.854 10.512 54.0127 10.204C54.1807 9.896 54.2647 9.54133 54.2647 9.14C54.2647 8.73867 54.1807 8.384 54.0127 8.076C53.854 7.768 53.63 7.53 53.3407 7.362C53.0607 7.18467 52.734 7.096 52.3607 7.096C51.9874 7.096 51.656 7.18467 51.3667 7.362C51.0774 7.53 50.8534 7.768 50.6947 8.076C50.536 8.384 50.4567 8.73867 50.4567 9.14C50.4567 9.54133 50.536 9.896 50.6947 10.204C50.8534 10.512 51.0774 10.7547 51.3667 10.932C51.656 11.1 51.9874 11.184 52.3607 11.184ZM49.0147 15.3V5.78H50.5547V7.586L50.2887 9.224L50.5547 10.848V15.3H49.0147ZM57.1358 12.5V2.42H58.6758V12.5H57.1358ZM60.4037 12.5V5.78H61.9437V12.5H60.4037ZM61.1737 4.548C60.9124 4.548 60.693 4.45933 60.5157 4.282C60.3477 4.10467 60.2637 3.88533 60.2637 3.624C60.2637 3.36267 60.3477 3.14333 60.5157 2.966C60.693 2.78867 60.9124 2.7 61.1737 2.7C61.4444 2.7 61.6637 2.78867 61.8317 2.966C61.9997 3.14333 62.0837 3.36267 62.0837 3.624C62.0837 3.88533 61.9997 4.10467 61.8317 4.282C61.6637 4.45933 61.4444 4.548 61.1737 4.548ZM67.941 12.5L65.099 9.07L67.927 5.78H69.761L66.513 9.476L66.583 8.594L69.901 12.5H67.941ZM63.671 12.5V2.42H65.211V12.5H63.671ZM73.2935 12.64C72.6869 12.64 72.1362 12.486 71.6415 12.178C71.1562 11.87 70.7689 11.4547 70.4795 10.932C70.1995 10.4 70.0595 9.80733 70.0595 9.154C70.0595 8.49133 70.1995 7.89867 70.4795 7.376C70.7689 6.844 71.1562 6.424 71.6415 6.116C72.1362 5.79867 72.6869 5.64 73.2935 5.64C73.8069 5.64 74.2595 5.752 74.6515 5.976C75.0529 6.19067 75.3702 6.48933 75.6035 6.872C75.8369 7.25467 75.9535 7.68867 75.9535 8.174V10.106C75.9535 10.5913 75.8369 11.0253 75.6035 11.408C75.3795 11.7907 75.0669 12.094 74.6655 12.318C74.2642 12.5327 73.8069 12.64 73.2935 12.64ZM73.5455 11.184C74.1149 11.184 74.5722 10.9927 74.9175 10.61C75.2722 10.2273 75.4495 9.73733 75.4495 9.14C75.4495 8.73867 75.3702 8.384 75.2115 8.076C75.0529 7.768 74.8289 7.53 74.5395 7.362C74.2595 7.18467 73.9282 7.096 73.5455 7.096C73.1722 7.096 72.8409 7.18467 72.5515 7.362C72.2715 7.53 72.0475 7.768 71.8795 8.076C71.7209 8.384 71.6415 8.73867 71.6415 9.14C71.6415 9.54133 71.7209 9.896 71.8795 10.204C72.0475 10.512 72.2715 10.7547 72.5515 10.932C72.8409 11.1 73.1722 11.184 73.5455 11.184ZM75.3515 12.5V10.694L75.6175 9.056L75.3515 7.432V5.78H76.8916V12.5H75.3515ZM80.7986 12.64C80.4253 12.64 80.066 12.5933 79.7206 12.5C79.3753 12.3973 79.058 12.2573 78.7686 12.08C78.4793 11.8933 78.2273 11.6693 78.0126 11.408L78.9926 10.428C79.226 10.6987 79.492 10.904 79.7906 11.044C80.0986 11.1747 80.444 11.24 80.8266 11.24C81.172 11.24 81.4333 11.1887 81.6106 11.086C81.788 10.9833 81.8766 10.834 81.8766 10.638C81.8766 10.4327 81.7926 10.274 81.6246 10.162C81.4566 10.05 81.2373 9.95667 80.9666 9.882C80.7053 9.798 80.4253 9.714 80.1266 9.63C79.8373 9.546 79.5573 9.434 79.2866 9.294C79.0253 9.14467 78.8106 8.944 78.6426 8.692C78.4746 8.44 78.3906 8.11333 78.3906 7.712C78.3906 7.28267 78.4886 6.914 78.6846 6.606C78.89 6.298 79.1746 6.06 79.5386 5.892C79.912 5.724 80.3553 5.64 80.8686 5.64C81.41 5.64 81.886 5.738 82.2966 5.934C82.7166 6.12067 83.0666 6.40533 83.3466 6.788L82.3666 7.768C82.1706 7.52533 81.9466 7.34333 81.6946 7.222C81.4426 7.10067 81.1533 7.04 80.8266 7.04C80.5186 7.04 80.2806 7.08667 80.1126 7.18C79.9446 7.27333 79.8606 7.40867 79.8606 7.586C79.8606 7.77267 79.9446 7.91733 80.1126 8.02C80.2806 8.12267 80.4953 8.21133 80.7566 8.286C81.0273 8.36067 81.3073 8.44467 81.5966 8.538C81.8953 8.622 82.1753 8.74333 82.4366 8.902C82.7073 9.05133 82.9266 9.25667 83.0946 9.518C83.2626 9.77 83.3466 10.1013 83.3466 10.512C83.3466 11.1653 83.118 11.6833 82.6606 12.066C82.2033 12.4487 81.5826 12.64 80.7986 12.64ZM84.6303 12.5V5.78H86.1703V12.5H84.6303ZM85.4003 4.548C85.1389 4.548 84.9196 4.45933 84.7423 4.282C84.5743 4.10467 84.4903 3.88533 84.4903 3.624C84.4903 3.36267 84.5743 3.14333 84.7423 2.966C84.9196 2.78867 85.1389 2.7 85.4003 2.7C85.6709 2.7 85.8903 2.78867 86.0583 2.966C86.2263 3.14333 86.3103 3.36267 86.3103 3.624C86.3103 3.88533 86.2263 4.10467 86.0583 4.282C85.8903 4.45933 85.6709 4.548 85.4003 4.548Z" fill="#FFA842"/>
<path fill-rule="evenodd" clip-rule="evenodd" d="M95.003 4.47951C94.2961 4.47951 93.723 5.05261 93.723 5.75957V13.4399C93.723 14.1468 94.2961 14.7199 95.003 14.7199H107.804C108.511 14.7199 109.084 14.1468 109.084 13.4399V5.75957C109.084 5.05261 108.511 4.47951 107.804 4.47951H95.003ZM92.4429 5.75957C92.4429 4.34566 93.5891 3.19946 95.003 3.19946H107.804C109.217 3.19946 110.364 4.34566 110.364 5.75957V13.4399C110.364 14.8538 109.217 16 107.804 16H95.003C93.5891 16 92.4429 14.8538 92.4429 13.4399V5.75957Z" fill="url(#paint0_linear_50_212)"/>
<path fill-rule="evenodd" clip-rule="evenodd" d="M105.13 0.0454481C105.51 -0.0259148 105.9 -0.0131138 106.275 0.0829819C106.651 0.179623 107.001 0.358126 107.301 0.605754C107.6 0.853382 107.841 1.16403 108.006 1.51554C108.172 1.86704 108.258 2.25074 108.258 2.63926V3.83951H106.978V2.63967C106.978 2.6396 106.978 2.63953 106.978 2.63946C106.978 2.43939 106.934 2.2418 106.848 2.06078C106.763 1.8797 106.639 1.71967 106.485 1.59211C106.33 1.46454 106.15 1.37258 105.956 1.3228C105.762 1.27301 105.56 1.26663 105.363 1.30409C105.359 1.30486 105.355 1.30559 105.351 1.30629L94.823 3.10322C94.5141 3.1634 94.2355 3.32887 94.0349 3.57151C93.8331 3.81557 93.7228 4.12241 93.723 4.4391L93.723 6.39961H92.4429V4.43973C92.4429 4.43966 92.4429 4.4396 92.4429 4.43954C92.4426 3.82493 92.6567 3.22948 93.0484 2.75581C93.4401 2.28204 93.9849 1.95983 94.5888 1.84474C94.5928 1.84398 94.5969 1.84325 94.6009 1.84255L105.13 0.0454481Z" fill="url(#paint1_linear_50_212)"/>
<path d="M105.883 10.8799C105.63 10.8799 105.383 10.8049 105.172 10.6642C104.962 10.5235 104.798 10.3236 104.701 10.0897C104.604 9.85583 104.579 9.59846 104.628 9.35015C104.677 9.10185 104.799 8.87376 104.978 8.69474C105.157 8.51573 105.385 8.39381 105.634 8.34442C105.882 8.29503 106.139 8.32038 106.373 8.41726C106.607 8.51415 106.807 8.67821 106.948 8.88872C107.088 9.09922 107.163 9.34671 107.163 9.59988C107.163 9.93937 107.029 10.265 106.789 10.505C106.549 10.7451 106.223 10.8799 105.883 10.8799Z" fill="url(#paint2_linear_50_212)"/>
<defs>
<linearGradient id="paint0_linear_50_212" x1="90.7629" y1="9.59972" x2="112.808" y2="10.5397" gradientUnits="userSpaceOnUse">
<stop stop-color="#FFA842"/>
<stop offset="1" stop-color="#FF981F"/>
</linearGradient>
<linearGradient id="paint1_linear_50_212" x1="90.9603" y1="3.19981" x2="110.341" y2="4.65851" gradientUnits="userSpaceOnUse">
<stop stop-color="#FFA842"/>
<stop offset="1" stop-color="#FF981F"/>
</linearGradient>
<linearGradient id="paint2_linear_50_212" x1="104.363" y1="9.59988" x2="107.515" y2="9.69588" gradientUnits="userSpaceOnUse">
<stop stop-color="#FFA842"/>
<stop offset="1" stop-color="#FF981F"/>
</linearGradient>
</defs>
</svg>
